<?xml version="1.0" standalone="no"?>
<!DOCTYPE svg PUBLIC "-//W3C//DTD SVG 20010904//EN"
 "http://www.w3.org/TR/2001/REC-SVG-20010904/DTD/svg10.dtd">
<svg version="1.0" xmlns="http://www.w3.org/2000/svg"
 width="325.000000pt" height="325.000000pt" viewBox="0 0 325.000000 325.000000"
 preserveAspectRatio="xMidYMid meet">
<metadata>
Created by potrace 1.14, written by Peter Selinger 2001-2017
</metadata>
<g transform="translate(0.000000,325.000000) scale(0.100000,-0.100000)"
fill="#000000" stroke="none">
<path d="M1286 3054 c-14 -14 -14 -19 0 -52 50 -116 48 -138 -17 -238 -47 -72
-78 -152 -79 -199 0 -37 25 -121 46 -153 29 -44 87 -103 117 -118 26 -14 31
-14 48 2 29 26 24 42 -30 92 -109 104 -120 193 -38 317 21 30 37 59 37 64 0 5
7 14 15 21 8 7 13 16 10 20 -3 5 -1 11 4 14 13 8 7 118 -9 158 -32 81 -70 107
-104 72z"/>
<path d="M1622 2953 c-22 -9 -33 -40 -22 -68 26 -68 19 -97 -52 -201 -60 -89
-46 -194 38 -280 35 -36 64 -43 84 -19 15 18 6 45 -26 81 -60 69 -64 108 -18
176 61 92 73 127 70 196 -5 81 -36 130 -74 115z"/>
<path d="M1238 2235 c-2 -2 -50 -6 -108 -10 -58 -3 -116 -8 -130 -10 -14 -3
-45 -6 -70 -9 -85 -9 -286 -46 -335 -62 -55 -17 -67 -21 -77 -23 -14 -3 -103
-54 -122 -70 -10 -9 -28 -35 -38 -59 -17 -37 -19 -66 -19 -220 1 -97 3 -188 5
-202 2 -14 7 -59 11 -100 11 -134 29 -245 57 -349 20 -77 72 -209 89 -226 5
-5 9 -19 9 -30 0 -25 -46 -119 -75 -153 -19 -23 -74 -57 -80 -50 -1 2 -10 17
-19 33 -8 17 -25 41 -36 54 -35 41 -120 33 -181 -18 -25 -21 -32 -36 -36 -76
-4 -41 -13 -57 -45 -91 -56 -59 -41 -86 58 -99 64 -9 124 7 188 51 28 19 56
34 63 34 6 0 24 5 40 12 15 6 31 12 35 12 30 4 144 132 161 179 2 7 23 -6 49
-29 25 -23 77 -65 117 -94 l72 -52 -28 -18 c-15 -9 -34 -24 -42 -33 -19 -23
-16 -85 4 -108 25 -26 96 -67 131 -74 103 -21 193 -35 220 -35 17 0 33 -3 36
-6 4 -3 38 -7 78 -9 39 -1 74 -6 78 -9 3 -4 18 -28 32 -53 14 -26 33 -47 42
-49 25 -3 67 33 63 54 -7 36 -46 131 -58 140 -7 6 -64 13 -127 16 -63 4 -128
8 -145 11 -16 3 -48 7 -69 10 -91 12 -188 44 -183 60 2 5 28 18 58 28 51 17
58 17 119 2 87 -22 154 -35 215 -40 28 -3 66 -8 85 -11 61 -12 328 -5 420 10
25 4 56 9 70 10 14 2 32 6 40 9 8 3 44 12 79 20 56 14 69 14 115 0 28 -8 55
-18 60 -23 15 -15 -61 -43 -177 -64 -50 -9 -199 -22 -284 -25 -32 -1 -48 -8
-68 -28 -14 -15 -25 -33 -25 -40 0 -7 -9 -28 -20 -48 -16 -29 -18 -39 -8 -60
6 -14 16 -25 22 -26 6 0 19 -2 29 -4 13 -2 27 11 47 42 16 25 31 50 33 56 1 5
37 11 77 13 41 2 75 4 75 4 0 3 41 8 105 15 85 9 82 8 172 35 84 25 132 61
141 107 6 32 -11 73 -30 73 -7 0 -13 5 -13 11 0 7 -8 18 -17 26 -12 10 -14 16
-6 19 33 14 157 109 196 151 l45 47 26 -52 c15 -29 43 -70 62 -92 36 -40 123
-90 156 -90 11 0 33 -7 51 -16 18 -10 62 -18 102 -20 58 -3 80 1 120 20 56 26
95 60 95 81 0 19 -37 44 -75 51 -24 4 -35 15 -51 47 -26 58 -76 82 -150 72
-61 -7 -87 -28 -99 -78 -4 -18 -7 -36 -6 -40 2 -12 -42 14 -63 37 -32 36 -63
91 -80 139 -15 45 -15 48 9 96 l25 49 77 -1 c209 -1 410 114 534 305 62 96 84
175 84 299 0 101 -1 108 -37 180 -43 85 -75 124 -138 166 -58 38 -71 44 -150
64 -43 10 -200 7 -245 -5 -15 -5 -26 3 -46 32 -15 21 -49 49 -78 64 -48 26
-243 79 -336 93 -42 6 -79 11 -130 20 -16 3 -57 7 -90 10 -33 3 -87 8 -120 11
-62 6 -612 14 -617 9z m1626 -547 c62 -33 75 -106 36 -195 -39 -89 -165 -186
-250 -195 -35 -3 -35 -3 -34 37 1 22 4 56 7 75 3 19 9 80 13 135 3 55 8 103
11 108 8 14 64 38 106 46 47 9 80 5 111 -11z m-66 -1011 c13 -16 -3 -57 -22
-57 -27 0 -45 12 -40 26 2 8 6 20 8 27 5 16 42 19 54 4z m-2547 -34 c6 -18 4
-25 -11 -33 -41 -22 -82 26 -42 49 25 15 44 9 53 -16z"/>
</g>
</svg>
